<?xml version="1.0" encoding="utf-8"?>
<!-- Generator: Adobe Illustrator 19.0.0, SVG Export Plug-In . SVG Version: 6.00 Build 0)  -->
<svg version="1.1" id="Layer_1" xmlns="http://www.w3.org/2000/svg" xmlns:xlink="http://www.w3.org/1999/xlink" x="0px" y="0px"
	 viewBox="-280 372 50 50" style="enable-background:new -280 372 50 50;" xml:space="preserve">
<style type="text/css">
	.st0{fill:#FFFFFF;}
</style>
<g>
	<path class="st0" d="M-242.4,397c0-3,2.4-5.4,5.4-5.4c3,0,5.4,2.4,5.4,5.4c0,3-2.4,5.4-5.4,5.4C-240,402.4-242.4,400-242.4,397z"/>
	<g>
		<g>
			<path class="st0" d="M-271.1,392c0.1,0,0.2,0.1,0.3,0.1C-270.9,392.1-271,392-271.1,392z"/>
			<path class="st0" d="M-272.1,391.7c0.1,0,0.2,0,0.3,0.1C-271.9,391.7-272,391.7-272.1,391.7z"/>
			<path class="st0" d="M-271.7,402.2c-0.1,0-0.2,0.1-0.3,0.1C-272,402.3-271.9,402.3-271.7,402.2z"/>
			<path class="st0" d="M-256,402.3c-0.1,0-0.2,0-0.3-0.1C-256.2,402.3-256.1,402.3-256,402.3z"/>
			<path class="st0" d="M-256.9,402c-0.1,0-0.2-0.1-0.3-0.1C-257.1,401.9-257,402-256.9,402z"/>
			<path class="st0" d="M-259.3,400.3c0.4,0.5,0.8,0.9,1.3,1.2l-0.9-0.8C-259,400.6-259.1,400.4-259.3,400.3z"/>
			<path class="st0" d="M-257.9,401.6c-0.1,0-0.2-0.1-0.2-0.1C-258,401.5-257.9,401.5-257.9,401.6z"/>
			<path class="st0" d="M-273,402.4c0.4,0,0.7,0,1-0.1c0.1,0,0.2,0,0.3-0.1c0.2-0.1,0.4-0.1,0.6-0.2c0.1,0,0.2-0.1,0.3-0.1
				c0.2-0.1,0.4-0.2,0.6-0.3c0.1,0,0.2-0.1,0.2-0.1l0,0l0,0l0.9-0.8l0,0c0.1-0.1,0.2-0.2,0.3-0.4c0.1-0.1,0.2-0.2,0.3-0.3l0,0
				c2.4-2.6,6.7-2.5,9.2,0c0,0.1,0.1,0.1,0.1,0.2c0.1,0.2,0.2,0.3,0.4,0.5l0.9,0.8l0,0l0,0c0.1,0.1,0.2,0.1,0.2,0.1
				c0.2,0.1,0.4,0.2,0.6,0.3c0.1,0,0.2,0.1,0.3,0.1c0.2,0.1,0.4,0.1,0.6,0.2c0.1,0,0.2,0.1,0.3,0.1c0.3,0.1,0.7,0.1,1,0.1
				c3,0,5.4-2.4,5.4-5.4c0-3-2.4-5.4-5.4-5.4c-0.3,0-0.7,0-1,0.1c-0.1,0-0.2,0-0.3,0.1c-0.2,0.1-0.4,0.1-0.6,0.2
				c-0.1,0-0.2,0.1-0.3,0.1c-0.2,0.1-0.4,0.2-0.6,0.3c-0.1,0-0.2,0.1-0.2,0.1l0,0l0,0l-0.9,0.8l0,0c-0.1,0.1-0.2,0.2-0.3,0.4
				c-0.1,0.1-0.2,0.2-0.3,0.3l0,0c-2.4,2.6-6.7,2.5-9.2,0c0-0.1-0.1-0.1-0.1-0.2c-0.1-0.2-0.2-0.3-0.4-0.5l-0.9-0.8l0,0l0,0
				c-0.1-0.1-0.2-0.1-0.2-0.1c-0.2-0.1-0.4-0.2-0.6-0.3c-0.1,0-0.2-0.1-0.3-0.1c-0.2-0.1-0.4-0.1-0.6-0.2c-0.1,0-0.2-0.1-0.3-0.1
				c-0.3-0.1-0.7-0.1-1-0.1c-3,0-5.4,2.4-5.4,5.4C-278.4,400-276,402.4-273,402.4z"/>
		</g>
		<g>
			<path class="st0" d="M-237.9,402.3c-0.1,0-0.2,0-0.3-0.1C-238.1,402.3-238,402.3-237.9,402.3z"/>
			<path class="st0" d="M-240.9,393.2l0.9-0.8C-240.3,392.8-240.6,393-240.9,393.2z"/>
			<path class="st0" d="M-241.2,393.6c-0.1,0.1-0.2,0.2-0.3,0.3l0,0C-241.4,393.8-241.3,393.7-241.2,393.6z"/>
			<path class="st0" d="M-238.9,402c-0.1,0-0.2-0.1-0.3-0.1C-239.1,401.9-239,402-238.9,402z"/>
			<path class="st0" d="M-239.2,392.1c0.1,0,0.2-0.1,0.3-0.1C-239,392-239.1,392.1-239.2,392.1z"/>
			<path class="st0" d="M-238.2,391.8c0.1,0,0.2-0.1,0.3-0.1C-238,391.7-238.1,391.7-238.2,391.8z"/>
			<path class="st0" d="M-241.3,400.3c0.4,0.5,0.8,0.9,1.3,1.2l-0.9-0.8C-241,400.6-241.1,400.4-241.3,400.3z"/>
			<path class="st0" d="M-240.1,392.6c0.1-0.1,0.2-0.1,0.2-0.1S-240,392.5-240.1,392.6z"/>
		</g>
	</g>
	<g>
		<path class="st0" d="M-261.8,403.5c0.1,0,0.2,0.1,0.3,0.1C-261.7,403.6-261.7,403.5-261.8,403.5z"/>
		<path class="st0" d="M-260.9,403.9c0.1,0,0.2,0.1,0.2,0.1C-260.8,403.9-260.9,403.9-260.9,403.9z"/>
		<path class="st0" d="M-262.8,403.2c0.1,0,0.2,0,0.3,0.1C-262.6,403.3-262.7,403.2-262.8,403.2z"/>
		<path class="st0" d="M-262.7,413.8"/>
		<path class="st0" d="M-246.7,413.8c-0.1,0-0.2,0-0.3-0.1C-246.9,413.8-246.8,413.8-246.7,413.8z"/>
		<path class="st0" d="M-250.3,405.4L-250.3,405.4"/>
		<path class="st0" d="M-247.7,413.5c-0.1,0-0.2-0.1-0.3-0.1C-247.9,413.5-247.8,413.5-247.7,413.5z"/>
		<path class="st0" d="M-248,403.6c0.1-0.1,0.2-0.1,0.3-0.1C-247.8,403.5-247.9,403.6-248,403.6z"/>
		<path class="st0" d="M-247.1,403.3c0.1,0,0.2-0.1,0.3-0.1C-246.8,403.2-246.9,403.3-247.1,403.3z"/>
		<path class="st0" d="M-263.8,413.9c0.4,0,0.7,0,1-0.1c0.1,0,0.2,0,0.3-0.1c0.2-0.1,0.4-0.1,0.6-0.2c0.1,0,0.2-0.1,0.3-0.1
			c0.2-0.1,0.4-0.2,0.6-0.3c0.1,0,0.2-0.1,0.2-0.1l0,0l0,0l0.9-0.8l0,0c0.1-0.1,0.2-0.2,0.3-0.4c0.1-0.1,0.2-0.2,0.3-0.3l0,0
			c2.4-2.6,6.7-2.5,9.2,0c0,0.1,0.1,0.1,0.1,0.2c0.1,0.2,0.2,0.3,0.4,0.5l0.9,0.8l0,0l0,0c0.1,0.1,0.2,0.1,0.2,0.1
			c0.2,0.1,0.4,0.2,0.6,0.3c0.1,0,0.2,0.1,0.3,0.1c0.2,0.1,0.4,0.1,0.6,0.2c0.1,0,0.2,0.1,0.3,0.1c0.3,0.1,0.7,0.1,1,0.1
			c3,0,5.4-2.4,5.4-5.4c0-3-2.4-5.4-5.4-5.4c-0.3,0-0.7,0-1,0.1c-0.1,0-0.2,0-0.3,0.1c-0.2,0.1-0.4,0.1-0.6,0.2
			c-0.1,0-0.2,0.1-0.3,0.1c-0.2,0.1-0.4,0.2-0.6,0.3c-0.1,0-0.2,0.1-0.2,0.1l0,0l0,0l-0.9,0.8l0,0c-0.1,0.1-0.2,0.2-0.3,0.4
			c-0.1,0.1-0.2,0.2-0.3,0.3l0,0c-2.4,2.6-6.7,2.5-9.2,0c0-0.1-0.1-0.1-0.1-0.2c-0.1-0.2-0.2-0.3-0.4-0.5l-0.9-0.8l0,0l0,0
			c-0.1-0.1-0.2-0.1-0.2-0.1c-0.2-0.1-0.4-0.2-0.6-0.3c-0.1-0.1-0.2-0.1-0.3-0.1c-0.2-0.1-0.4-0.1-0.6-0.2c-0.1,0-0.2-0.1-0.3-0.1
			c-0.3-0.1-0.7-0.1-1-0.1c-3,0-5.4,2.4-5.4,5.4C-269.2,411.5-266.8,413.9-263.8,413.9z"/>
	</g>
	<g>
		<path class="st0" d="M-262.8,380.2c0.1,0,0.2,0,0.3,0.1C-262.6,380.2-262.7,380.2-262.8,380.2z"/>
		<path class="st0" d="M-262.4,390.7c-0.1,0-0.2,0.1-0.3,0.1C-262.7,390.8-262.6,390.7-262.4,390.7z"/>
		<path class="st0" d="M-260.7,390c-0.1,0.1-0.2,0.1-0.2,0.1S-260.8,390.1-260.7,390z"/>
		<path class="st0" d="M-261.6,390.4c-0.1,0-0.2,0.1-0.3,0.1C-261.7,390.5-261.7,390.4-261.6,390.4z"/>
		<path class="st0" d="M-246.7,390.8c-0.1,0-0.2,0-0.3-0.1C-246.9,390.7-246.8,390.8-246.7,390.8z"/>
		<path class="st0" d="M-249.7,381.8l0.9-0.8C-249.1,381.3-249.4,381.6-249.7,381.8z"/>
		<path class="st0" d="M-250,382.1c-0.1,0.1-0.2,0.2-0.3,0.3l0,0C-250.2,382.3-250.1,382.2-250,382.1z"/>
		<path class="st0" d="M-247.7,390.5c-0.1,0-0.2-0.1-0.3-0.1C-247.9,390.4-247.8,390.5-247.7,390.5z"/>
		<path class="st0" d="M-248,380.6c0.1,0,0.2-0.1,0.3-0.1C-247.8,380.5-247.9,380.5-248,380.6z"/>
		<path class="st0" d="M-247.1,380.3c0.1,0,0.2-0.1,0.3-0.1C-246.8,380.2-246.9,380.2-247.1,380.3z"/>
		<path class="st0" d="M-250.1,388.8c0.4,0.5,0.8,0.9,1.3,1.2l-0.9-0.8C-249.8,389.1-249.9,388.9-250.1,388.8z"/>
		<path class="st0" d="M-248.8,381.1c0.1-0.1,0.2-0.1,0.2-0.1C-248.6,381-248.7,381-248.8,381.1z"/>
		<path class="st0" d="M-248.6,390.1c-0.1,0-0.2-0.1-0.2-0.1C-248.7,390.1-248.6,390.1-248.6,390.1z"/>
		<path class="st0" d="M-263.8,390.9c0.4,0,0.7,0,1-0.1c0.1,0,0.2,0,0.3-0.1c0.2-0.1,0.4-0.1,0.6-0.2c0.1,0,0.2-0.1,0.3-0.1
			c0.2-0.1,0.4-0.2,0.6-0.3c0.1,0,0.2-0.1,0.2-0.1l0,0l0,0l0.9-0.8l0,0c0.1-0.1,0.2-0.2,0.3-0.4c0.1-0.1,0.2-0.2,0.3-0.3l0,0
			c2.4-2.6,6.7-2.5,9.2,0c0,0.1,0.1,0.1,0.1,0.2c0.1,0.2,0.2,0.3,0.4,0.5l0.9,0.8l0,0l0,0c0.1,0.1,0.2,0.1,0.2,0.1
			c0.2,0.1,0.4,0.2,0.6,0.3c0.1,0,0.2,0.1,0.3,0.1c0.2,0.1,0.4,0.1,0.6,0.2c0.1,0,0.2,0.1,0.3,0.1c0.3,0.1,0.7,0.1,1,0.1
			c3,0,5.4-2.4,5.4-5.4c0-3-2.4-5.4-5.4-5.4c-0.3,0-0.7,0-1,0.1c-0.1,0-0.2,0-0.3,0.1c-0.2,0.1-0.4,0.1-0.6,0.2
			c-0.1,0-0.2,0.1-0.3,0.1c-0.2,0.1-0.4,0.2-0.6,0.3c-0.1,0-0.2,0.1-0.2,0.1l0,0l0,0l-0.9,0.8l0,0c-0.1,0.1-0.2,0.2-0.3,0.4
			c-0.1,0.1-0.2,0.2-0.3,0.3l0,0c-2.4,2.6-6.7,2.5-9.2,0c0-0.1-0.1-0.1-0.1-0.2c-0.1-0.2-0.2-0.3-0.4-0.5l-0.9-0.8l0,0l0,0
			c-0.1-0.1-0.2-0.1-0.2-0.1c-0.2-0.1-0.4-0.2-0.6-0.3c-0.1,0-0.2-0.1-0.3-0.1c-0.2-0.1-0.4-0.1-0.6-0.2c-0.1,0-0.2-0.1-0.3-0.1
			c-0.3-0.1-0.7-0.1-1-0.1c-3,0-5.4,2.4-5.4,5.4C-269.2,388.5-266.8,390.9-263.8,390.9z"/>
	</g>
</g>
</svg>
